<svg width="320" height="320" viewBox="0 0 320 320" xmlns="http://www.w3.org/2000/svg"><path d="M 20.0 50.0 L 80.0 50.0 M 60.0 30.0 L 80.0 50.0 L 60.0 70.0" stroke="black" stroke-width="3" fill="none" transform="rotate(0, 50.0, 50.0)" /><path d="M 130.0 50.0 L 190.0 50.0 M 170.0 30.0 L 190.0 50.0 L 170.0 70.0" stroke="black" stroke-width="3" fill="none" transform="rotate(90, 160.0, 50.0)" /><path d="M 240.0 50.0 L 300.0 50.0 M 280.0 30.0 L 300.0 50.0 L 280.0 70.0" stroke="black" stroke-width="3" fill="none" transform="rotate(180, 270.0, 50.0)" /><path d="M 20.0 160.0 L 80.0 160.0 M 60.0 140.0 L 80.0 160.0 L 60.0 180.0" stroke="black" stroke-width="3" fill="none" transform="rotate(45, 50.0, 160.0)" /><path d="M 130.0 160.0 L 190.0 160.0 M 170.0 140.0 L 190.0 160.0 L 170.0 180.0" stroke="black" stroke-width="3" fill="none" transform="rotate(135, 160.0, 160.0)" /><path d="M 240.0 160.0 L 300.0 160.0 M 280.0 140.0 L 300.0 160.0 L 280.0 180.0" stroke="black" stroke-width="3" fill="none" transform="rotate(225, 270.0, 160.0)" /><path d="M 20.0 270.0 L 80.0 270.0 M 60.0 250.0 L 80.0 270.0 L 60.0 290.0" stroke="black" stroke-width="3" fill="none" transform="rotate(90, 50.0, 270.0)" /><path d="M 130.0 270.0 L 190.0 270.0 M 170.0 250.0 L 190.0 270.0 L 170.0 290.0" stroke="black" stroke-width="3" fill="none" transform="rotate(180, 160.0, 270.0)" /><text x="270.0" y="280.0" font-family="Arial" font-size="40" text-anchor="middle" fill="#ccc">?</text></svg>