<svg width="320" height="320" viewBox="0 0 320 320" xmlns="http://www.w3.org/2000/svg"><polygon points="50.0,20.0 58.8167787843871,37.864745084375784 78.53169548885461,40.72949016875158 64.2658477444273,54.63525491562421 67.6335575687742,74.27050983124843 50.0,65.0 32.366442431225806,74.27050983124843 35.734152255572695,54.635254915624216 21.46830451114539,40.72949016875158 41.1832212156129,37.86474508437579" fill="none" stroke="black" stroke-width="3" transform="rotate(0, 50.0, 50.0)" /><polygon points="160.0,17.5 169.55151034975268,36.8534738414071 190.90933677959248,39.95694768281421 175.45466838979624,55.02152615859289 179.10302069950538,76.2930523171858 160.0,66.25 140.89697930049462,76.2930523171858 144.54533161020376,55.0215261585929 129.09066322040752,39.95694768281422 150.44848965024732,36.85347384140711" fill="black" stroke="black" stroke-width="3" transform="rotate(0, 160.0, 50.0)" /><polygon points="270.0,15.0 280.2862419151183,35.84220259843842 303.28697807033035,39.18440519687684 286.6434890351652,55.40779740156158 290.57248383023654,78.31559480312316 270.0,67.5 249.42751616976344,78.31559480312316 253.35651096483483,55.40779740156158 236.71302192966962,39.184405196876845 259.7137580848817,35.84220259843842" fill="#ccc" stroke="black" stroke-width="3" transform="rotate(0, 270.0, 50.0)" /><path d="M 20.0 160.0 L 80.0 160.0 M 50.0 130.0 L 50.0 190.0" stroke="black" stroke-width="3" transform="rotate(0, 50.0, 160.0)" /><path d="M 127.5 160.0 L 192.5 160.0 M 160.0 127.5 L 160.0 192.5" stroke="black" stroke-width="3" transform="rotate(0, 160.0, 160.0)" /><path d="M 235.0 160.0 L 305.0 160.0 M 270.0 125.0 L 270.0 195.0" stroke="black" stroke-width="3" transform="rotate(0, 270.0, 160.0)" /><rect x="20.0" y="240.0" width="60" height="60" fill="none" stroke="black" stroke-width="3" transform="rotate(0, 50.0, 270.0)" /><rect x="127.5" y="237.5" width="65" height="65" fill="black" stroke="black" stroke-width="3" transform="rotate(0, 160.0, 270.0)" /><text x="270.0" y="280.0" font-family="Arial" font-size="40" text-anchor="middle" fill="#ccc">?</text></svg>