<svg width="320" height="320" viewBox="0 0 320 320" xmlns="http://www.w3.org/2000/svg"><polygon points="50.0,24.019237886466843 20.0,75.98076211353316 80.0,75.98076211353316" fill="none" stroke="black" stroke-width="3" transform="rotate(0, 50.0, 50.0)" /><polygon points="160.0,24.019237886466843 130.0,75.98076211353316 190.0,75.98076211353316" fill="none" stroke="black" stroke-width="3" transform="rotate(90, 160.0, 50.0)" /><polygon points="270.0,24.019237886466843 240.0,75.98076211353316 300.0,75.98076211353316" fill="none" stroke="black" stroke-width="3" transform="rotate(180, 270.0, 50.0)" /><polygon points="50.0,134.01923788646684 20.0,185.98076211353316 80.0,185.98076211353316" fill="none" stroke="black" stroke-width="3" transform="rotate(45, 50.0, 160.0)" /><polygon points="160.0,134.01923788646684 130.0,185.98076211353316 190.0,185.98076211353316" fill="none" stroke="black" stroke-width="3" transform="rotate(135, 160.0, 160.0)" /><polygon points="270.0,134.01923788646684 240.0,185.98076211353316 300.0,185.98076211353316" fill="none" stroke="black" stroke-width="3" transform="rotate(225, 270.0, 160.0)" /><polygon points="50.0,244.01923788646684 20.0,295.98076211353316 80.0,295.98076211353316" fill="none" stroke="black" stroke-width="3" transform="rotate(90, 50.0, 270.0)" /><polygon points="160.0,244.01923788646684 130.0,295.98076211353316 190.0,295.98076211353316" fill="none" stroke="black" stroke-width="3" transform="rotate(180, 160.0, 270.0)" /><text x="270.0" y="280.0" font-family="Arial" font-size="40" text-anchor="middle" fill="#ccc">?</text></svg>