<svg width="320" height="320" viewBox="0 0 320 320" xmlns="http://www.w3.org/2000/svg"><polygon points="50.0,19.68911086754465 15.0,80.31088913245534 85.0,80.31088913245534" fill="none" stroke="black" stroke-width="3" transform="rotate(0, 50.0, 50.0)" /><polygon points="160.0,19.68911086754465 125.0,80.31088913245534 195.0,80.31088913245534" fill="none" stroke="black" stroke-width="3" transform="rotate(90, 160.0, 50.0)" /><polygon points="270.0,19.68911086754465 235.0,80.31088913245534 305.0,80.31088913245534" fill="none" stroke="black" stroke-width="3" transform="rotate(180, 270.0, 50.0)" /><polygon points="50.0,129.68911086754466 15.0,190.31088913245534 85.0,190.31088913245534" fill="none" stroke="black" stroke-width="3" transform="rotate(90, 50.0, 160.0)" /><polygon points="160.0,129.68911086754466 125.0,190.31088913245534 195.0,190.31088913245534" fill="none" stroke="black" stroke-width="3" transform="rotate(180, 160.0, 160.0)" /><polygon points="270.0,129.68911086754466 235.0,190.31088913245534 305.0,190.31088913245534" fill="none" stroke="black" stroke-width="3" transform="rotate(270, 270.0, 160.0)" /><polygon points="50.0,239.68911086754466 15.0,300.3108891324554 85.0,300.3108891324554" fill="none" stroke="black" stroke-width="3" transform="rotate(180, 50.0, 270.0)" /><polygon points="160.0,239.68911086754466 125.0,300.3108891324554 195.0,300.3108891324554" fill="none" stroke="black" stroke-width="3" transform="rotate(270, 160.0, 270.0)" /><text x="270.0" y="280.0" font-family="Arial" font-size="40" text-anchor="middle" fill="#ccc">?</text></svg>